<?xml version="1.0" encoding="utf-8"?>
<!-- Generator: Adobe Illustrator 24.3.0, SVG Export Plug-In . SVG Version: 6.00 Build 0)  -->
<svg version="1.1" id="Layer_1" xmlns="http://www.w3.org/2000/svg" xmlns:xlink="http://www.w3.org/1999/xlink" x="0px" y="0px"
	 viewBox="0 0 206 48" style="enable-background:new 0 0 206 48;" xml:space="preserve">
<style type="text/css">
	.st0{fill:#FFFFFF;}
</style>
<g>
	<g>
		<path class="st0" d="M27.7,10.5h6.1V32h-6.1V10.5z"/>
		<path class="st0" d="M57,10.5h6.1V32H57V10.5z"/>
		<path class="st0" d="M39.7,31.8c-1.6-0.4-3-1-4-1.7l2-4.5c1,0.6,2.1,1.1,3.4,1.5c1.3,0.4,2.5,0.6,3.8,0.6c2.3,0,3.5-0.6,3.5-1.8
			c0-0.6-0.3-1.1-1-1.4c-0.7-0.3-1.7-0.6-3.2-0.9c-1.6-0.3-3-0.7-4.1-1.1c-1.1-0.4-2-1-2.8-1.9c-0.8-0.9-1.2-2.1-1.2-3.6
			c0-1.3,0.4-2.5,1.1-3.6c0.7-1.1,1.8-1.9,3.2-2.5c1.4-0.6,3.2-0.9,5.2-0.9c1.4,0,2.8,0.2,4.2,0.5c1.4,0.3,2.6,0.8,3.6,1.4l-1.9,4.5
			c-2.1-1.1-4-1.7-6-1.7c-1.2,0-2.1,0.2-2.6,0.5c-0.6,0.4-0.8,0.8-0.8,1.4c0,0.6,0.3,1,1,1.3c0.7,0.3,1.7,0.6,3.2,0.9
			c1.6,0.3,3,0.7,4.1,1.1c1.1,0.4,2,1,2.8,1.9c0.8,0.9,1.2,2.1,1.2,3.6c0,1.3-0.4,2.5-1.1,3.5c-0.7,1-1.8,1.9-3.2,2.5
			c-1.4,0.6-3.2,0.9-5.2,0.9C43.1,32.4,41.4,32.2,39.7,31.8z"/>
		<path class="st0" d="M150.9,27.8h-9.1l-1.7,4.2h-6.2l9.5-21.5h6l9.5,21.5h-6.3L150.9,27.8z M149.1,23.3l-2.8-6.9l-2.8,6.9H149.1z"
			/>
		<path class="st0" d="M164.1,15.3h-6.6v-4.8h19.3v4.8h-6.6V32h-6.1V15.3z"/>
		<path class="st0" d="M193.4,10.5v8.1h-8.3v-8.1h-6.1V32h6.1v-8.4h8.3V32h6.1V10.5H193.4z"/>
		<path class="st0" d="M119.5,10.5c1.5,3.3,4.1,4.9,7.5,5v-2.1l5.3,3.9l-5.3,3.8v-1.6c-8.6-1.1-10.1,11.4-1.6,12.5l0-7.6l3.5,0
			c8.3,0,8.3-14,0-14H119.5z"/>
		<path class="st0" d="M118.9,9.6c-0.7,0.1-1.1,0.1-1.6,0.1c-0.2,0-0.5,0-0.5,0.1c-0.2,0.8-0.8,1.6-0.5,2.5c0.6,1.2,0.1,2.2-0.5,3.2
			c-1.1-0.8-1.3-1.9-0.6-2.7c0.7-0.8,0.8-1.7,1.1-2.5c0.2-0.4,0-0.5-0.4-0.4c-1.5,0.2-3.1,0.3-4.6,0.5c-0.6,0.1-0.9,0-1.2-0.5
			c-1.7-2.2-3.9-3.6-6.6-3.9c-0.8-0.1-1.6-0.2-2.3,0.1c0.1,0.1,0.2,0.1,0.3,0.1c1.9,0.3,3.9,0.9,6,2.3c0,0,0,0,0,0
			c1.6,1.1,3.3,2.6,5,4.8l0,0c-0.3-0.3-0.5-0.5-0.8-0.7c0,0,0,0,0,0c-0.1-0.1-0.2-0.2-0.3-0.2c0,0,0,0,0,0c-0.2-0.2-0.4-0.3-0.6-0.4
			c-0.7-0.5-1.5-1-2.4-1.3c-1.9-0.8-4.1-1.2-6.4-1.2c-2.1,0-4,0.3-5.8,1h0l0.1-0.4l0.5-2.1c0.1-0.4,0-0.6-0.3-0.8
			c-1.9-1.4-3.8-2.7-5.6-4.1c-0.7-0.5-1.3-1-2.1-1.6c0.4,0,0.6,0,0.8,0c5.2-0.4,10.3-0.7,15.5-1.1c0.7-0.1,1.3,0.1,1.8,0.6
			c2.7,2,5.5,4,8.2,6.1C116.2,7.6,117.5,8.5,118.9,9.6z"/>
		<path class="st0" d="M25,31.7c-3.5,0.7-6.8,0.3-9.6-2.2c-3-2.8-3.1-7.1-0.3-9.9c0.3-0.3,0.6-0.5,0.9,0c0.2,0.3,0.5,0.6,0.8,1
			c0.3-1.1,0.6-2,0.9-3c0.3-0.9,0.6-1.9,0.9-2.9h-6.4c0.2,0.6,0.7,1,1,1.4c0.2,0.3,0.3,0.5,0,0.8c-2.5,2.8-2.9,6-1.7,9.4
			c0.1,0.4,0.1,0.6-0.1,0.8l-0.1,0.1L6.5,32l0-3.5c0-6,0-12,0-18c3.4,0.1,6.7-0.1,10.1,0.1c1.8,0.1,3.5,0.7,4.9,1.8
			C25,15,25,22.1,19.7,24.1c1.9,2.2,3.6,4.5,5.5,6.8C25.6,31.3,25.7,31.5,25,31.7z"/>
		<path class="st0" d="M82.1,21.9"/>
		<polygon class="st0" points="88,10.5 88,32 83,32 73.5,20.5 73.5,32 67.6,32 67.6,10.5 72.6,10.5 82.1,21.9 82.1,10.5 		"/>
	</g>
	<g>
		<g>
			<path class="st0" d="M38.2,39.6v2.1h3.3v1.9h-3.3v2.2H42v2h-6.3V37.6H42v2H38.2z"/>
			<path class="st0" d="M50.3,38.3c0.8,0.4,1.4,1,1.9,1.8c0.4,0.8,0.7,1.7,0.7,2.7c0,1-0.2,1.9-0.7,2.7c-0.4,0.8-1.1,1.4-1.9,1.8
				c-0.8,0.4-1.8,0.6-2.8,0.6h-3.8V37.6h3.8C48.6,37.6,49.5,37.9,50.3,38.3z M49.5,45c0.5-0.5,0.8-1.2,0.8-2.2
				c0-0.9-0.3-1.7-0.8-2.2c-0.5-0.5-1.3-0.8-2.2-0.8h-1.2v6h1.2C48.3,45.7,49,45.5,49.5,45z"/>
			<path class="st0" d="M56.7,37.6v6.1c0,0.6,0.2,1.1,0.5,1.4c0.3,0.3,0.7,0.5,1.3,0.5c0.6,0,1-0.2,1.3-0.5c0.3-0.3,0.5-0.8,0.5-1.4
				v-6.1h2.5v6.1c0,0.9-0.2,1.7-0.6,2.3c-0.4,0.6-0.9,1.1-1.6,1.4C60,47.8,59.3,48,58.4,48c-0.8,0-1.5-0.2-2.2-0.5
				c-0.6-0.3-1.1-0.8-1.5-1.4c-0.4-0.6-0.6-1.4-0.6-2.3v-6.1H56.7z"/>
			<path class="st0" d="M64.8,40c0.4-0.8,1-1.4,1.8-1.9c0.8-0.4,1.7-0.7,2.7-0.7c1.2,0,2.3,0.3,3.1,1c0.9,0.6,1.4,1.5,1.7,2.6h-2.7
				c-0.2-0.4-0.5-0.8-0.9-1c-0.4-0.2-0.8-0.3-1.3-0.3c-0.8,0-1.4,0.3-1.9,0.8c-0.5,0.5-0.7,1.3-0.7,2.1c0,0.9,0.2,1.6,0.7,2.1
				c0.5,0.5,1.1,0.8,1.9,0.8c0.5,0,0.9-0.1,1.3-0.3c0.4-0.2,0.7-0.5,0.9-1h2.7c-0.3,1.1-0.9,2-1.7,2.6c-0.9,0.6-1.9,1-3.1,1
				c-1,0-1.9-0.2-2.7-0.7c-0.8-0.4-1.4-1.1-1.8-1.8c-0.4-0.8-0.7-1.7-0.7-2.7C64.1,41.7,64.3,40.8,64.8,40z"/>
			<path class="st0" d="M82.1,46.1h-3.8l-0.6,1.8H75l3.7-10.2h2.9l3.7,10.2h-2.6L82.1,46.1z M81.4,44.2l-1.3-3.8l-1.3,3.8H81.4z"/>
			<path class="st0" d="M93.8,37.6v2h-2.7v8.2h-2.5v-8.2h-2.7v-2H93.8z"/>
			<path class="st0" d="M97.6,37.6v10.2h-2.5V37.6H97.6z"/>
			<path class="st0" d="M101.6,47.3c-0.8-0.4-1.4-1.1-1.9-1.9c-0.5-0.8-0.7-1.7-0.7-2.7c0-1,0.2-1.9,0.7-2.7
				c0.5-0.8,1.1-1.4,1.9-1.9c0.8-0.4,1.7-0.7,2.6-0.7c1,0,1.8,0.2,2.6,0.7c0.8,0.4,1.4,1.1,1.9,1.9c0.5,0.8,0.7,1.7,0.7,2.7
				c0,1-0.2,1.9-0.7,2.7c-0.5,0.8-1.1,1.4-1.9,1.9c-0.8,0.4-1.7,0.7-2.6,0.7C103.3,48,102.4,47.8,101.6,47.3z M106.2,44.9
				c0.5-0.5,0.7-1.3,0.7-2.2c0-0.9-0.2-1.6-0.7-2.2c-0.5-0.5-1.1-0.8-2-0.8c-0.8,0-1.5,0.3-2,0.8c-0.5,0.5-0.7,1.3-0.7,2.2
				c0,0.9,0.2,1.6,0.7,2.2c0.5,0.5,1.2,0.8,2,0.8C105,45.7,105.7,45.4,106.2,44.9z"/>
			<path class="st0" d="M120,47.9h-2.5l-4.2-6.3v6.3h-2.5V37.6h2.5l4.2,6.4v-6.4h2.5V47.9z"/>
		</g>
		<g>
			<path class="st0" d="M135.9,47.9h-2.5l-4.2-6.3v6.3h-2.5V37.6h2.5l4.2,6.4v-6.4h2.5V47.9z"/>
			<path class="st0" d="M140.2,39.6v2.1h3.3v1.9h-3.3v2.2h3.8v2h-6.3V37.6h6.3v2H140.2z"/>
			<path class="st0" d="M152.9,37.6v2h-2.7v8.2h-2.5v-8.2H145v-2H152.9z"/>
			<path class="st0" d="M168.3,37.6l-2.7,10.2h-3l-1.6-6.7l-1.7,6.7h-3l-2.6-10.2h2.7l1.5,7.5l1.8-7.5h2.7l1.8,7.5l1.5-7.5H168.3z"
				/>
			<path class="st0" d="M171.7,47.3c-0.8-0.4-1.4-1.1-1.9-1.9c-0.5-0.8-0.7-1.7-0.7-2.7c0-1,0.2-1.9,0.7-2.7
				c0.5-0.8,1.1-1.4,1.9-1.9c0.8-0.4,1.7-0.7,2.6-0.7c1,0,1.8,0.2,2.6,0.7c0.8,0.4,1.4,1.1,1.9,1.9c0.5,0.8,0.7,1.7,0.7,2.7
				c0,1-0.2,1.9-0.7,2.7c-0.5,0.8-1.1,1.4-1.9,1.9c-0.8,0.4-1.7,0.7-2.6,0.7C173.4,48,172.5,47.8,171.7,47.3z M176.4,44.9
				c0.5-0.5,0.7-1.3,0.7-2.2c0-0.9-0.2-1.6-0.7-2.2c-0.5-0.5-1.1-0.8-2-0.8c-0.8,0-1.5,0.3-2,0.8c-0.5,0.5-0.7,1.3-0.7,2.2
				c0,0.9,0.2,1.6,0.7,2.2c0.5,0.5,1.2,0.8,2,0.8C175.2,45.7,175.9,45.4,176.4,44.9z"/>
			<path class="st0" d="M186.3,47.9l-2.1-3.9h-0.6v3.9H181V37.6h4.2c0.8,0,1.5,0.1,2.1,0.4c0.6,0.3,1,0.7,1.3,1.2
				c0.3,0.5,0.4,1,0.4,1.6c0,0.7-0.2,1.3-0.6,1.8c-0.4,0.5-1,0.9-1.7,1.1l2.4,4.1H186.3z M183.5,42.3h1.5c0.5,0,0.8-0.1,1-0.3
				c0.2-0.2,0.3-0.5,0.3-0.9c0-0.4-0.1-0.7-0.3-0.9c-0.2-0.2-0.6-0.3-1-0.3h-1.5V42.3z"/>
			<path class="st0" d="M196.5,47.9l-3.4-4.5v4.5h-2.5V37.6h2.5v4.5l3.4-4.5h2.9l-4,5l4.1,5.2H196.5z"/>
		</g>
	</g>
	<path class="st0" d="M111.2,20.8v8.9c-1.2,0.9-2.6,1.6-4.2,2c-1.6,0.5-3.2,0.7-4.8,0.7c-2.3,0-4.3-0.5-6.1-1.4
		c-1.8-1-3.2-2.3-4.2-4c-1-1.7-1.5-3.6-1.5-5.8c0-2.1,0.5-4.1,1.5-5.8c1-1.7,2.5-3,4.3-4c1.8-1,3.9-1.4,6.2-1.4c2,0,3.8,0.3,5.4,1
		c1.6,0.7,2.9,1.6,4,2.9l-3.9,3.5c-1.5-1.6-3.2-2.4-5.2-2.4c-1.8,0-3.3,0.6-4.5,1.7c-1.1,1.1-1.7,2.6-1.7,4.5c0,1.2,0.3,2.3,0.8,3.2
		c0.5,0.9,1.2,1.7,2.1,2.2c0.9,0.5,2,0.8,3.2,0.8c1.2,0,2.3-0.2,3.3-0.7v-1.5h-4.6v-4.4H111.2z"/>
</g>
</svg>
